<svg width="70" height="69" viewBox="0 0 70 69" fill="none" xmlns="http://www.w3.org/2000/svg">
<path d="M39.308 68.9362L36.9676 62.5063C35.6575 62.5961 34.3423 62.5961 33.0321 62.5063L30.6918 68.9362L15.9437 63.5683L18.2839 57.1388C17.2239 56.3665 16.217 55.5204 15.2713 54.6077L9.34348 58.0303L1.49614 44.4381L7.41753 41.0195C7.10223 39.7471 6.87511 38.4507 6.73832 37.1411L0 35.953L2.72533 20.4968L9.45961 21.6842C10.0362 20.506 10.6954 19.3668 11.4316 18.2766L7.0335 13.0352L19.0563 2.94692L23.4514 8.18478C24.6524 7.65032 25.8894 7.20013 27.1527 6.83771V0H42.8473V6.83771C44.1105 7.2 45.3479 7.65032 46.5486 8.18478L50.9439 2.94692L62.9665 13.0352L58.5684 18.2766C59.3046 19.367 59.9637 20.5062 60.5404 21.6842L67.2745 20.4968L70 35.953L63.2618 37.1411C63.1249 38.4507 62.8979 39.7471 62.5826 41.0195L68.504 44.4381L60.6567 58.03L54.7289 54.6074C53.7832 55.5201 52.7762 56.3662 51.7162 57.1386L54.0565 63.5681L39.308 68.9362ZM39.6848 58.1275L41.7291 63.744L48.864 61.1471L46.8195 55.5302L48.1787 54.6544C49.9062 53.5412 51.4925 52.2084 52.8937 50.693L53.9923 49.5048L59.1735 52.4963L62.9699 45.9209L57.7962 42.9338L58.2758 41.3884C58.8834 39.4308 59.2407 37.3905 59.3382 35.324L59.4144 33.7059L65.3069 32.667L63.9884 25.1897L58.1044 26.2272L57.4783 24.7353C56.684 22.8425 55.6467 21.0496 54.3949 19.4063L53.4133 18.1178L57.259 13.5346L51.4428 8.65401L47.6001 13.2335L46.1607 12.4904C44.3309 11.5458 42.3849 10.8377 40.3766 10.3855L38.7961 10.0297V4.05093H31.2034V10.0296L29.6229 10.3855C27.6144 10.8377 25.6685 11.5458 23.8389 12.4904L22.3995 13.2335L18.5568 8.65388L12.7405 13.5344L16.5863 18.1178L15.6047 19.4063C14.353 21.0493 13.3156 22.8423 12.5213 24.7353L11.8952 26.2271L6.01132 25.1897L4.69287 32.667L10.5852 33.7059L10.6615 35.324C10.7589 37.3904 11.1164 39.4308 11.7239 41.3884L12.2036 42.9338L7.02986 45.9209L10.8263 52.4963L16.0075 49.5048L17.1061 50.693C18.5074 52.2084 20.0937 53.5412 21.8212 54.6544L23.1804 55.5302L21.136 61.1471L28.2709 63.744L30.3152 58.1275L31.9191 58.3298C33.9503 58.586 36.0502 58.586 38.0812 58.3298L39.6848 58.1275Z" fill="#8E8E8E"/>
<circle cx="34.8749" cy="33.8749" r="20.8749" stroke="#8E8E8E" stroke-width="2"/>
<path d="M46.4476 41.843L40.6891 36.0845L40.9895 35.7838C41.0691 35.7041 41.1138 35.5961 41.1138 35.4835C41.1138 35.3708 41.0691 35.2628 40.9895 35.1831L39.7877 33.9818C39.7081 33.9022 39.6 33.8574 39.4874 33.8574C39.3748 33.8574 39.2667 33.9022 39.1871 33.9818L37.9858 35.1831L36.9909 34.1883L41.3595 29.8206C41.4972 29.6836 41.6647 29.5801 41.8488 29.5183C42.033 29.4564 42.2289 29.4377 42.4214 29.4637C43.1766 29.555 43.9424 29.4417 44.6388 29.1355C45.3351 28.8294 45.9364 28.3418 46.3797 27.7236C46.8229 27.1055 47.092 26.3796 47.1585 25.6218C47.2251 24.8641 47.0868 24.1024 46.7582 23.4164C46.7287 23.3552 46.6851 23.302 46.6309 23.2612C46.5767 23.2204 46.5136 23.1931 46.4467 23.1817C46.3798 23.1703 46.3112 23.1751 46.2465 23.1957C46.1819 23.2163 46.1231 23.252 46.0751 23.3L43.8589 25.5161H42.6585V24.3157L44.8746 22.0995C44.9226 22.0515 44.9583 21.9928 44.9789 21.9281C44.9995 21.8635 45.0043 21.7948 44.9929 21.7279C44.9815 21.661 44.9542 21.5979 44.9134 21.5437C44.8726 21.4895 44.8194 21.4459 44.7582 21.4165C44.0721 21.0878 43.3103 20.9496 42.5525 21.0163C41.7947 21.083 41.0688 21.3522 40.4506 21.7956C39.8325 22.239 39.3449 22.8404 39.0388 23.5369C38.7328 24.2333 38.6195 24.9992 38.7109 25.7544C38.7369 25.9471 38.718 26.1432 38.6558 26.3274C38.5937 26.5116 38.4898 26.6789 38.3524 26.8164L33.9863 31.1833L27.651 24.8479L27.8001 23.5999C27.8106 23.5155 27.7954 23.4298 27.7566 23.3541C27.7179 23.2783 27.6572 23.216 27.5826 23.1751L23.9765 21.2015C23.8959 21.1573 23.8032 21.1405 23.7122 21.1535C23.6212 21.1665 23.5369 21.2087 23.4719 21.2737L22.274 22.4716C22.209 22.5366 22.1668 22.6209 22.1538 22.7119C22.1407 22.8029 22.1576 22.8957 22.2018 22.9763L24.177 26.5824C24.2179 26.657 24.2803 26.7176 24.356 26.7564C24.4318 26.7952 24.5174 26.8103 24.6018 26.7999L25.8499 26.6508L32.1835 32.9861L27.8158 37.3538C27.6782 37.491 27.5107 37.5945 27.3265 37.6564C27.1424 37.7183 26.9464 37.7368 26.7538 37.7106C25.9986 37.6193 25.2328 37.7326 24.5364 38.0387C23.84 38.3448 23.2386 38.8324 22.7953 39.4506C22.3519 40.0687 22.0829 40.7947 22.0163 41.5524C21.9497 42.3102 22.088 43.072 22.4167 43.758C22.4461 43.8191 22.4897 43.8723 22.5439 43.9132C22.5981 43.954 22.6613 43.9812 22.7282 43.9926C22.7951 44.004 22.8637 43.9992 22.9283 43.9787C22.993 43.9581 23.0518 43.9223 23.0998 43.8744L25.3159 41.6582H26.5164V42.8587L24.3002 45.0748C24.2523 45.1228 24.2165 45.1816 24.1959 45.2463C24.1754 45.3109 24.1706 45.3796 24.182 45.4464C24.1934 45.5133 24.2206 45.5765 24.2615 45.6307C24.3023 45.6849 24.3555 45.7285 24.4166 45.7579C25.1027 46.0866 25.8645 46.2248 26.6223 46.1581C27.3801 46.0914 28.106 45.8223 28.7242 45.3789C29.3423 44.9354 29.8299 44.334 30.1359 43.6375C30.4419 42.9411 30.555 42.1751 30.4635 41.4199C30.4377 41.2272 30.4566 41.0312 30.5188 40.847C30.5811 40.6628 30.685 40.4954 30.8225 40.358L35.1885 35.9911L36.1834 36.9855L34.9821 38.1868C34.9024 38.2665 34.8577 38.3745 34.8577 38.4872C34.8577 38.5998 34.9024 38.7078 34.9821 38.7875L36.1838 39.9888C36.2635 40.0684 36.3715 40.1132 36.4841 40.1132C36.5968 40.1132 36.7048 40.0684 36.7845 39.9888L37.0848 39.6885L42.8437 45.4474C43.0792 45.6893 43.3604 45.8821 43.671 46.0144C43.9816 46.1468 44.3154 46.2161 44.653 46.2184C44.9906 46.2206 45.3253 46.1558 45.6376 46.0276C45.95 45.8995 46.2337 45.7105 46.4725 45.4718C46.7112 45.2331 46.9001 44.9493 47.0282 44.6369C47.1563 44.3245 47.2211 43.9898 47.2188 43.6522C47.2165 43.3146 47.1471 42.9808 47.0148 42.6702C46.8824 42.3597 46.6896 42.0785 46.4476 41.843V41.843ZM26.304 25.904C26.2585 25.8585 26.2033 25.8239 26.1425 25.8029C26.0817 25.7818 26.017 25.7748 25.9531 25.7825L24.7853 25.9227L23.1002 22.8472L23.8474 22.1L26.9229 23.7838L26.7827 24.9516C26.7751 25.0155 26.7821 25.0802 26.8031 25.141C26.8241 25.2018 26.8587 25.257 26.9042 25.3025L33.3857 31.7839L32.7842 32.3855L26.304 25.904ZM30.2248 39.7547C29.9952 39.9828 29.8213 40.2608 29.7166 40.5671C29.612 40.8734 29.5795 41.1997 29.6216 41.5206C29.6885 42.0723 29.6191 42.6319 29.4193 43.1505C29.2195 43.669 28.8955 44.1306 28.4757 44.4948C28.0559 44.8589 27.5531 45.1145 27.0116 45.239C26.47 45.3635 25.9061 45.3533 25.3694 45.2091L27.2432 43.3349C27.3222 43.255 27.3664 43.147 27.366 43.0346V41.2334C27.366 41.1208 27.3212 41.0127 27.2415 40.9331C27.1619 40.8534 27.0538 40.8087 26.9412 40.8087H25.14C25.0274 40.8087 24.9194 40.8535 24.8397 40.9331L22.9655 42.8052C22.8213 42.2687 22.8108 41.7049 22.9352 41.1634C23.0595 40.6219 23.3149 40.1192 23.6788 39.6994C24.0427 39.2796 24.5041 38.9555 25.0224 38.7556C25.5408 38.5556 26.1003 38.4859 26.6519 38.5526C26.9727 38.5947 27.2989 38.5623 27.6052 38.458C27.9115 38.3537 28.1897 38.1802 28.4182 37.9511L38.953 27.4162C39.1825 27.188 39.3563 26.91 39.4609 26.6038C39.5655 26.2975 39.5981 25.9713 39.5562 25.6504C39.4901 25.0993 39.56 24.5404 39.76 24.0226C39.9599 23.5048 40.2837 23.0439 40.703 22.6803C41.1223 22.3166 41.6244 22.0613 42.1652 21.9367C42.7061 21.812 43.2692 21.8219 43.8054 21.9653L41.9334 23.8395C41.8537 23.9191 41.8089 24.0272 41.8089 24.1398V25.9409C41.8089 26.0536 41.8537 26.1616 41.9333 26.2413C42.013 26.321 42.121 26.3657 42.2337 26.3657H44.0348C44.1475 26.3657 44.2555 26.3209 44.3351 26.2413L46.2089 24.3692C46.3534 24.9057 46.3639 25.4695 46.2397 26.0111C46.1154 26.5526 45.8601 27.0554 45.4962 27.4753C45.1323 27.8952 44.6709 28.2193 44.1525 28.4193C43.6341 28.6193 43.0746 28.6889 42.523 28.6222C42.2021 28.5801 41.8759 28.6125 41.5696 28.7168C41.2633 28.8211 40.9852 28.9946 40.7567 29.2237L30.2248 39.7547ZM36.3919 34.7889L37.3864 35.7834L36.7836 36.3849L35.7892 35.3904L36.3919 34.7889ZM35.8822 38.4876L39.4866 34.8828L40.0876 35.4835L36.4841 39.0882L35.8822 38.4876ZM45.8461 44.8467C45.5223 45.1553 45.0921 45.3274 44.6448 45.3274C44.1975 45.3274 43.7674 45.1553 43.4435 44.8467L37.6854 39.0882L40.0885 36.6852L45.847 42.4437C46.0048 42.6015 46.1299 42.7888 46.2153 42.9949C46.3007 43.2011 46.3447 43.4221 46.3447 43.6452C46.3447 43.8684 46.3007 44.0893 46.2153 44.2955C46.1299 44.5016 46.0048 44.6889 45.847 44.8467H45.8461Z" fill="#8E8E8E"/>
</svg>
